<svg id="Layer_1" data-name="Layer 1" xmlns="http://www.w3.org/2000/svg" viewBox="0 0 112.11 122.88"><title>confidential-file</title><path d="M61.82,11.92,82.18,31H61.82V11.92ZM21.51,88.44a2.21,2.21,0,0,0-2.07,2.29A2.17,2.17,0,0,0,21.51,93H52.14a2.21,2.21,0,0,0,2.07-2.3,2.17,2.17,0,0,0-2.07-2.29H21.51Zm0-16.43a2.21,2.21,0,0,0-2.07,2.3,2.18,2.18,0,0,0,2.07,2.3H52.14a2.21,2.21,0,0,0,2.07-2.3A2.18,2.18,0,0,0,52.14,72ZM68.13,91.34h4.23V85.5A17.48,17.48,0,0,1,77.5,73.14h0a17.45,17.45,0,0,1,24.74,0h0a17.52,17.52,0,0,1,5.14,12.36v5.84h3.36a1.38,1.38,0,0,1,1.37,1.36v28.81a1.39,1.39,0,0,1-1.37,1.37H68.11a1.38,1.38,0,0,1-1.37-1.37V92.68a1.38,1.38,0,0,1,1.39-1.34Zm11,0h21.4v-6a10.63,10.63,0,0,0-3.14-7.55h0a10.7,10.7,0,0,0-18.26,7.55v6ZM21.51,39.16a2.21,2.21,0,0,0-2.07,2.3,2.17,2.17,0,0,0,2.07,2.29H45.15a2.19,2.19,0,0,0,2.06-2.29,2.17,2.17,0,0,0-2.06-2.3Zm0-16.42A2.21,2.21,0,0,0,19.47,25a2.17,2.17,0,0,0,2.07,2.29h13A2.21,2.21,0,0,0,36.59,25a2.18,2.18,0,0,0-2.07-2.3Zm0,32.85a2.21,2.21,0,0,0-2.07,2.3,2.17,2.17,0,0,0,2.07,2.29h40a2.21,2.21,0,0,0,2.06-2.29,2.17,2.17,0,0,0-2.06-2.3Zm72-21.87A3.41,3.41,0,0,0,91,30.45L61,1.25A3.32,3.32,0,0,0,58.43,0H6.1A6.08,6.08,0,0,0,0,6.09V110.41a6.08,6.08,0,0,0,6.1,6.09H54.16v-6.81H6.81V6.78H55v27.6a3.42,3.42,0,0,0,3.42,3.42H86.7v20h6.81v-24Z"/></svg>